# AST/ASF file generated using VICON BodyLanguage
# -----------------------------------------------
:version 1.10
:name VICON
:units
  mass 1.0
  length 0.45
  angle deg
:documentation
   .ast/.asf automatically generated from VICON data using
   VICON BodyBuilder and BodyLanguage model FoxedUp or BRILLIANT.MOD
:root
   order TX TY TZ RX RY RZ
   axis XYZ
   position 0 0 0  
   orientation 0 0 0 
:bonedata
  begin
     id 1 
     name lhipjoint
     direction 0.707368 -0.647095 0.284426 
     length 2.60678 
     axis 0 0 0  XYZ
  end
  begin
     id 2 
     name lfemur
     direction 0.34202 -0.939693 0  
     length 6.63812  
     axis 0 0 20  XYZ
    dof rx ry rz
    limits (-160.0 20.0)
           (-70.0 70.0)
           (-60.0 70.0)
  end
  begin
     id 3 
     name ltibia
     direction 0.34202 -0.939693 0   
     length 7.51178   
     axis 0 0 20   XYZ
    dof rx
    limits (-10.0 170.0)
  end
  begin
     id 4 
     name lfoot
     direction 0.121251 -0.333133 0.935051   
     length 1.83716   
     axis -90 7.62852e-016 20   XYZ
    dof rx rz
    limits (-45.0 90.0)
           (-70.0 20.0)
  end
  begin
     id 5 
     name ltoes
     direction 1.53611e-011 -4.21962e-011 1   
     length 0.916133   
     axis -90 7.62852e-016 20   XYZ
    dof rx
    limits (-90.0 20.0)
  end
  begin
     id 6 
     name rhipjoint
     direction -0.692419 -0.660507 0.290321   
     length 2.55385  
     axis 0 0 0  XYZ 
  end
  begin
     id 7 
     name rfemur
     direction -0.34202 -0.939693 0   
     length 7.29079   
     axis 0 0 -20   XYZ
    dof rx ry rz
    limits (-160.0 20.0)
           (-70.0 70.0)
           (-70.0 60.0)
  end
  begin
     id 8 
     name rtibia
     direction -0.34202 -0.939693 0   
     length 7.47143   
     axis 0 0 -20   XYZ
    dof rx
    limits (-10.0 170.0)
 end
 begin
     id 9 
     name rfoot
     direction -0.119907 -0.329441 0.936532   
     length 1.79439  
     axis -90 -7.62852e-016 -20   XYZ
    dof rx rz
    limits (-45.0 90.0)
           (-20.0 70.0)
  end
  begin
     id 10 
     name rtoes
     direction -1.53571e-011 -4.21961e-011 1   
     length 0.896039   
     axis -90 -7.62852e-016 -20   XYZ
    dof rx
    limits (-90.0 20.0)
  end
  begin
     id 11 
     name lowerback
     direction 0.0367721 0.992912 -0.113016   
     length 1.73542   
     axis 0 0 0   XYZ
    dof rx ry rz
    limits (-20.0 45.0)
           (-30.0 30.0)
           (-30.0 30.0)
  end
  begin
     id 12 
     name upperback
     direction -0.000314626 0.990678 0.136227   
     length 1.7514   
     axis 0 0 0   XYZ
    dof rx ry rz
    limits (-20.0 45.0)
           (-30.0 30.0)
           (-30.0 30.0)
  end
  begin
     id 13 
     name thorax
     direction -0.0226159 0.981151 0.191917   
     length 1.71471   
     axis 0 0 0   XYZ
    dof rx ry rz
    limits (-20.0 45.0)
           (-30.0 30.0)
           (-30.0 30.0)
  end
  begin
     id 14 
     name lowerneck
     direction 0.0219333 0.998071 0.0580739   
     length 1.65882   
     axis 0 0 0   XYZ
    dof rx ry rz
    limits (-20.0 45.0)
           (-30.0 30.0)
           (-30.0 30.0)
  end
  begin
     id 15 
     name upperneck
     direction 0.0384529 0.980058 -0.194957   
     length 1.6612   
     axis 0 0 0   XYZ
    dof rx ry rz
    limits (-20.0 45.0)
           (-30.0 30.0)
           (-30.0 30.0)
  end
  begin
     id 16
     name head
     direction 0.00592123 0.997421 -0.0715234  
     length 1.68077  
     axis 0 0 0   XYZ
    dof rx ry rz
    limits (-20.0 45.0)
           (-30.0 30.0)
           (-30.0 30.0)
  end
  begin
     id 17 
     name lclavicle
     direction 0.904803 0.417826 0.0821728  
     length 3.42227  
     axis 0 0 0   XYZ
    dof ry rz
    limits (-20.0 10.0)
           (0.0 20.0)
  end
  begin
     id 18 
     name lhumerus
     direction 1 -4.48965e-011 -2.68786e-027   
     length 5.11878   
     axis -180 -30 -90   XYZ
    dof rx ry rz
    limits (-60.0 90.0)
           (-90.0 90.0)
           (-90.0 90.0)
  end
  begin
     id 19
     name lradius
     direction 1 -4.48965e-011 2.61168e-028   
     length 3.59971   
     axis -180 -30 -90   XYZ
    dof rx
    limits (-10.0 170.0)
  end
  begin
     id 20
     name lwrist
     direction 1 -4.48965e-011 1.58672e-027   
     length 1.79985   
     axis -1.65735e-015 90 90   XYZ
    dof ry
    limits (-180.0 0.0)
 end
  begin
     id 21 
     name lhand
     direction 1 -4.48942e-011 3.17344e-027   
     length 0.62877   
     axis -2.02492e-015 90 90   XYZ
    dof rx rz
    limits (-90.0 90.0)
           (-45.0 45.0)
  end
  begin
     id 22 
     name lfingers
     direction 1 -4.49011e-011 6.34687e-027   
     length 0.506931   
     axis -4.04985e-015 90 90   XYZ
    dof rx
    limits (0.0 90.0)
  end
  begin
     id 23
     name lthumb
     direction 0.707107 -6.34982e-011 0.707107   
     length 0.727854   
     axis -90 45 2.85299e-015   XYZ
    dof rx rz
    limits (-45.0 45.0)
           (-45.0 45.0)
  end
  begin
     id 24 
     name rclavicle
     direction -0.945647 0.32488 0.0143075   
     length 3.52737  
     axis 0 0 0   XYZ 
    dof ry rz
    limits (-10.0 20.0)
           (-20.0 0.0)
  end
  begin
     id 25 
     name rhumerus
     direction -1 -4.48962e-011 1.92182e-027  
     length 5.4902   
     axis -180 30 90   XYZ
    dof rx ry rz
    limits (-90.0 60.0)
           (-90.0 90.0)
           (-90.0 90.0)
  end
  begin
     id 26 
     name rradius
     direction -1 -4.48967e-011 -5.97193e-028   
     length 3.20659   
     axis -180 30 90   XYZ
    dof rx
    limits (-10.0 170.0)
  end
  begin
     id 27 
     name rwrist
     direction -1 -4.48964e-011 1.58672e-027   
     length 1.6033   
     axis -1.65735e-015 -90 -90   XYZ
    dof ry
    limits (-180.0 0.0)
  end
  begin
     id 28
     name rhand
     direction -1 -4.49006e-011 3.17344e-027   
     length 0.691885   
     axis -2.02492e-015 -90 -90   XYZ
    dof rx rz
    limits (-90.0 90.0)
           (-45.0 45.0)
  end
  begin
     id 29
     name rfingers
     direction -1 -4.48908e-011 6.34687e-027   
     length 0.557815   
     axis -4.04985e-015 -90 -90   XYZ
    dof rx
    limits (0.0 90.0)
  end
  begin
     id 30
     name rthumb
     direction -0.707107 -6.34999e-011 0.707107   
     length 0.800915   
     axis -90 -45 -2.85299e-015   XYZ
    dof rx rz
    limits (-45.0 45.0)
           (-45.0 45.0)
  end
:hierarchy
  begin
    root lhipjoint rhipjoint lowerback
    lhipjoint lfemur
    lfemur ltibia
    ltibia lfoot
    lfoot ltoes
    rhipjoint rfemur
    rfemur rtibia
    rtibia rfoot
    rfoot rtoes
    lowerback upperback
    upperback thorax
    thorax lowerneck lclavicle rclavicle
    lowerneck upperneck
    upperneck head
    lclavicle lhumerus
    lhumerus lradius
    lradius lwrist
    lwrist lhand lthumb
    lhand lfingers
    rclavicle rhumerus
    rhumerus rradius
    rradius rwrist
    rwrist rhand rthumb
    rhand rfingers
  end

#!OML:ASF I:\Actors\actors\Patient Classification 1\Patient 1\Session 1\Subject1.ASF
:FULLY-SPECIFIED
:DEGREES
1
root -0.357632 17.4909 7.96973 6.05023 -1.63039 -8.57038
lowerback 0 0 0
upperback 0 0 0
thorax 0 0 0
lowerneck 0 0 0
upperneck 0 0 0
head 0 0 0
rclavicle 0 0
rhumerus 0 0 0
rradius 0
rwrist 0
rhand 0 0
rfingers 0
rthumb 0 0
lclavicle 0 0
lhumerus 0 0 0
lradius 0
lwrist 0
lhand 0 0
lfingers 0
lthumb 0 0
rfemur 1.91041 24.7263 28.2623
rtibia 1.20783
rfoot -11.4291 -24.4671
rtoes 2.75285
lfemur 11.171 -40.2553 -17.1875
ltibia -4.96005
lfoot -15.6796 47.1404
ltoes 4.19514
2
root -0.357959 17.491 7.96946 6.06475 -1.6446 -8.5953
lowerback 0 0 0
upperback 0 0 0
thorax 0 0 0
lowerneck 0 0 0
upperneck 0 0 0
head 0 0 0
rclavicle 0 0
rhumerus 0 0 0
rradius 0
rwrist 0
rhand 0 0
rfingers 0
rthumb 0 0
lclavicle 0 0
lhumerus 0 0 0
lradius 0
lwrist 0
lhand 0 0
lfingers 0
lthumb 0 0
rfemur 1.86567 24.6755 28.2741
rtibia 1.23862
rfoot -11.4225 -24.4173
rtoes 2.40123
lfemur 11.208 -40.3984 -17.208
ltibia -4.955
lfoot -15.7387 47.2758
ltoes 4.12333
3
root -0.357501 17.4915 7.96901 6.06003 -1.64477 -8.59494
lowerback 0 0 0
upperback 0 0 0
thorax 0 0 0
lowerneck 0 0 0
upperneck 0 0 0
head 0 0 0
rclavicle 0 0
rhumerus 0 0 0
rradius 0
rwrist 0
rhand 0 0
rfingers 0
rthumb 0 0
lclavicle 0 0
lhumerus 0 0 0
lradius 0
lwrist 0
lhand 0 0
lfingers 0
lthumb 0 0
rfemur 1.88436 24.735 28.2874
rtibia 1.22611
rfoot -11.4567 -24.4682
rtoes 2.40299
lfemur 11.2369 -40.4571 -17.236
ltibia -4.96016
lfoot -15.8228 47.3236
ltoes 4.20863
4
root -0.356685 17.4919 7.96863 6.07814 -1.64398 -8.5887
lowerback 0 0 0
upperback 0 0 0
thorax 0 0 0
lowerneck 0 0 0
upperneck 0 0 0
head 0 0 0
rclavicle 0 0
rhumerus 0 0 0
rradius 0
rwrist 0
rhand 0 0
rfingers 0
rthumb 0 0
lclavicle 0 0
lhumerus 0 0 0
lradius 0
lwrist 0
lhand 0 0
lfingers 0
lthumb 0 0
rfemur 1.85389 24.7212 28.266
rtibia 1.23952
rfoot -11.4745 -24.4648
rtoes 2.50513
lfemur 11.1898 -40.4069 -17.2049
ltibia -4.96693
lfoot -15.641 47.297
ltoes 3.93267
5
root -0.358841 17.4952 7.97453 6.22408 -1.63061 -8.42399
lowerback -0.0250146 0.759318 5.59397
upperback -8.74331 1.44842 1.93576
thorax -9.15084 0.37014 -1.18133
lowerneck -0.275652 -13.3327 -12.3365
upperneck 16.9115 -19.5846 10.7594
head 7.52643 -9.61725 3.80792
rclavicle 3.72721e-015 -1.43125e-014
rhumerus -48.7707 -28.0758 -65.0946
rradius 27.1673
rwrist 42.3543
rhand 7.45159 -31.1384
rfingers 7.12502
rthumb 32.7054 -58.2003
lclavicle 3.72721e-015 -1.43125e-014
lhumerus -52.3376 34.0046 58.0724
lradius 24.2637
lwrist -28.26
lhand -13.5427 -10.3916
lfingers 7.12502
lthumb 12.5701 19.2103
rfemur 1.74507 24.8038 28.0244
rtibia 1.15006
rfoot -11.4783 -24.5615
rtoes 2.68322
lfemur 10.9791 -40.4689 -17.2752
ltibia -4.95047
lfoot -15.5195 47.3754
ltoes 3.68519
6
root -0.363913 17.5012 7.98705 6.44753 -1.59139 -8.06536
lowerback 0.0344377 0.745556 5.27559
upperback -9.14033 1.42857 1.81163
thorax -9.63144 0.36271 -1.13418
lowerneck 0.0361006 -13.2729 -12.3979
upperneck 17.1314 -19.5363 10.6353
head 7.53231 -9.61745 3.80363
rclavicle -7.45443e-016 -9.14409e-015
rhumerus -49.1074 -27.3652 -65.3995
rradius 27.245
rwrist 41.0832
rhand 7.48278 -31.6126
rfingers 7.12502
rthumb 32.7351 -58.6683
lclavicle -7.45443e-016 -9.14409e-015
lhumerus -52.0714 31.4983 60.0362
lradius 25.1261
lwrist -25.2497
lhand -13.747 -9.25068
lfingers 7.12502
lthumb 12.373 20.3632
rfemur 1.656 25.0136 27.5608
rtibia 0.903356
rfoot -11.4813 -24.8164
rtoes 2.90945
lfemur 10.7161 -40.7288 -17.5704
ltibia -4.91773
lfoot -15.7021 47.5901
ltoes 3.90718
7
root -0.36634 17.5042 7.99363 6.5458 -1.56758 -7.87665
lowerback -0.0157639 0.633184 5.03838
upperback -9.25991 1.27436 1.91393
thorax -9.74902 0.307223 -0.879744
lowerneck 0.136142 -13.1204 -12.7502
upperneck 17.0961 -19.3259 10.7072
head 7.52049 -9.53802 3.90912
rclavicle -8.94531e-016 9.74045e-015
rhumerus -48.9123 -26.7463 -65.6651
rradius 27.2403
rwrist 40.5214
rhand 7.52284 -31.7144
rfingers 7.12502
rthumb 32.7732 -58.7622
lclavicle -8.94531e-016 9.74045e-015
lhumerus -52.1492 30.708 60.9386
lradius 25.6373
lwrist -23.8676
lhand -14.0003 -8.83327
lfingers 7.12502
lthumb 12.1288 20.7952
rfemur 1.63741 25.1061 27.3267
rtibia 0.765764
rfoot -11.4646 -24.9574
rtoes 2.99343
lfemur 10.6107 -40.8592 -17.7398
ltibia -4.90204
lfoot -15.9116 47.6522
ltoes 4.26811
8
root -0.365638 17.504 7.9937 6.54747 -1.55878 -7.87795
lowerback -0.0328074 0.590613 5.0473
upperback -9.24468 1.22221 2.00013
thorax -9.72662 0.285846 -0.78854
lowerneck 0.207085 -13.0396 -13.0192
upperneck 16.9166 -19.2177 10.8761
head 7.48007 -9.49645 4.02103
rclavicle 3.42904e-015 -2.42517e-014
rhumerus -48.7058 -26.5157 -65.8311
rradius 27.2966
rwrist 40.4349
rhand 7.61369 -31.6757
rfingers 7.12502
rthumb 32.8596 -58.7054
lclavicle 3.42904e-015 -2.42517e-014
lhumerus -52.1989 30.8972 61.0032
lradius 25.7083
lwrist -23.8459
lhand -13.9806 -8.81921
lfingers 7.12502
lthumb 12.1478 20.8081
rfemur 1.65162 25.1362 27.3335
rtibia 0.760066
rfoot -11.4638 -24.9914
rtoes 3.17577
lfemur 10.5844 -40.7944 -17.7093
ltibia -4.89681
lfoot -15.8366 47.5616
ltoes 4.17354
9
root -0.364545 17.5036 7.99351 6.55585 -1.54219 -7.87505
lowerback -0.0592019 0.683305 5.11849
upperback -9.24351 1.3412 1.89741
thorax -9.70013 0.334029 -0.946858
lowerneck 0.350368 -13.1099 -12.9126
upperneck 16.7389 -19.3355 10.9789
head 7.41197 -9.54866 4.03744
rclavicle 5.96354e-016 3.12092e-014
rhumerus -48.7837 -26.787 -65.8533
rradius 27.3479
rwrist 40.3996
rhand 7.63123 -31.7526
rfingers 7.12502
rthumb 32.8763 -58.7788
lclavicle 5.96354e-016 3.12092e-014
lhumerus -51.9072 30.6548 61.1937
lradius 25.7071
lwrist -23.7442
lhand -13.6284 -8.62714
lfingers 7.12502
lthumb 12.4874 20.9798
rfemur 1.65737 25.1416 27.327
rtibia 0.74944
rfoot -11.4853 -24.9991
rtoes 3.27757
lfemur 10.5361 -40.7267 -17.6801
ltibia -4.87854
lfoot -15.6875 47.5041
ltoes 3.88223
10
root -0.363952 17.5031 7.99355 6.56707 -1.53637 -7.8707
lowerback -0.0818588 0.851918 5.21381
upperback -9.25552 1.5569 1.69355
thorax -9.68104 0.422479 -1.2338
lowerneck 0.487503 -13.2684 -12.5712
upperneck 16.5989 -19.58 11.0251
head 7.34367 -9.65127 3.98736
rclavicle 1.39149e-014 -1.59028e-014
rhumerus -49.0348 -27.3977 -65.7189
rradius 27.3246
rwrist 40.5156
rhand 7.55619 -31.8213
rfingers 7.12502
rthumb 32.8049 -58.8625
lclavicle 1.39149e-014 -1.59028e-014
lhumerus -51.4584 30.2246 61.3863
lradius 25.6376
lwrist -23.7295
lhand -13.4306 -8.52347
lfingers 7.12502
lthumb 12.6781 21.0717
rfemur 1.65337 25.1211 27.3176
rtibia 0.728022
rfoot -11.4125 -24.9964
rtoes 2.88547
lfemur 10.5218 -40.7351 -17.6845
ltibia -4.86929
lfoot -15.7098 47.5136
ltoes 3.99504
11
root -0.363521 17.5029 7.99331 6.59115 -1.54561 -7.86484
lowerback -0.113128 0.946832 5.2716
upperback -9.26519 1.67753 1.5825
thorax -9.66169 0.471919 -1.39313
lowerneck 0.528051 -13.349 -12.3518
upperneck 16.5458 -19.7019 11.0332
head 7.31299 -9.69933 3.94909
rclavicle 6.06293e-015 -2.90226e-014
rhumerus -49.1323 -27.7509 -65.6637
rradius 27.2515
rwrist 40.665
rhand 7.56693 -31.905
rfingers 7.12502
rthumb 32.8152 -58.9441
lclavicle 6.06293e-015 -2.90226e-014
lhumerus -51.2176 30.0762 61.4252
lradius 25.586
lwrist -23.8645
lhand -13.437 -8.6187
lfingers 7.12502
lthumb 12.672 20.9769
rfemur 1.61927 25.1412 27.2996
rtibia 0.728589
rfoot -11.3472 -25.0089
rtoes 2.70993
lfemur 10.5086 -40.791 -17.6952
ltibia -4.86905
lfoot -15.6721 47.5653
ltoes 4.08229
12
root -0.363262 17.5031 7.99253 6.6023 -1.55448 -7.85745
lowerback -0.139956 0.958668 5.27884
upperback -9.25457 1.69088 1.5762
thorax -9.63256 0.478453 -1.40439
lowerneck 0.527042 -13.3323 -12.3271
upperneck 16.5105 -19.6818 11.0708
head 7.30036 -9.6865 3.96077
rclavicle -7.25564e-015 -1.07344e-014
rhumerus -49.0278 -27.7616 -65.7664
rradius 27.1662
rwrist 40.7297
rhand 7.57203 -32.0044
rfingers 7.12502
rthumb 32.82 -59.0424
lclavicle -7.25564e-015 -1.07344e-014
lhumerus -51.1519 30.1223 61.4223
lradius 25.6056
lwrist -23.9706
lhand -13.3591 -8.69302
lfingers 7.12502
lthumb 12.747 20.8979
rfemur 1.59546 25.1866 27.2828
rtibia 0.74525
rfoot -11.4197 -25.0218
rtoes 2.95466
lfemur 10.5016 -40.8284 -17.7026
ltibia -4.87822
lfoot -15.6095 47.604
ltoes 4.03023
13
root -0.363771 17.5033 7.99214 6.5854 -1.5536 -7.86971
lowerback -0.144671 0.964109 5.29042
upperback -9.24082 1.69876 1.58787
thorax -9.61402 0.48262 -1.39892
lowerneck 0.572023 -13.2982 -12.4051
upperneck 16.4504 -19.6526 11.2002
head 7.29065 -9.67192 4.01999
rclavicle -1.12313e-014 0
rhumerus -48.9305 -27.7604 -65.8395
rradius 27.0626
rwrist 40.8216
rhand 7.54035 -32.1391
rfingers 7.12502
rthumb 32.7899 -59.1834
lclavicle -1.12313e-014 0
lhumerus -51.095 30.1175 61.46
lradius 25.6211
lwrist -23.9722
lhand -13.3422 -8.63264
lfingers 7.12502
lthumb 12.7633 20.9572
rfemur 1.61904 25.1735 27.3064
rtibia 0.741651
rfoot -11.4516 -25.0156
rtoes 2.98739
lfemur 10.5311 -40.8107 -17.6889
ltibia -4.91289
lfoot -15.5774 47.5897
ltoes 3.98604
14
root -0.364245 17.5033 7.99219 6.58187 -1.55219 -7.88189
lowerback -0.156618 0.960917 5.29391
upperback -9.24753 1.69561 1.60752
thorax -9.61526 0.481658 -1.37949
lowerneck 0.672242 -13.2451 -12.4872
upperneck 16.3819 -19.5992 11.3199
head 7.26497 -9.64936 4.0843
rclavicle -6.36111e-015 -1.94809e-014
rhumerus -48.8964 -27.8539 -65.7922
rradius 26.9244
rwrist 41.0976
rhand 7.563 -32.207
rfingers 7.12502
rthumb 32.8114 -59.2468
lclavicle -6.36111e-015 -1.94809e-014
lhumerus -51.0792 30.109 61.4832
lradius 25.6066
lwrist -23.9216
lhand -13.4914 -8.52037
lfingers 7.12502
lthumb 12.6194 21.0784
rfemur 1.62644 25.1538 27.3254
rtibia 0.733962
rfoot -11.4226 -25.0177
rtoes 3.02838
lfemur 10.5409 -40.8071 -17.6765
ltibia -4.91904
lfoot -15.5595 47.588
ltoes 3.90266
15
root -0.36368 17.5028 7.9917 6.5951 -1.55281 -7.8646
lowerback -0.172352 0.958018 5.28596
upperback -9.26639 1.69046 1.60047
thorax -9.62732 0.478871 -1.38188
lowerneck 0.775301 -13.2013 -12.482
upperneck 16.3533 -19.5534 11.365
head 7.23601 -9.62969 4.1122
rclavicle -7.45443e-015 3.97569e-015
rhumerus -48.908 -28.0451 -65.6805
rradius 26.7714
rwrist 41.4598
rhand 7.68817 -32.1266
rfingers 7.12502
rthumb 32.9305 -59.1415
lclavicle -7.45443e-015 3.97569e-015
lhumerus -51.0954 30.0941 61.4612
lradius 25.6064
lwrist -23.9316
lhand -13.6427 -8.36277
lfingers 7.12502
lthumb 12.4736 21.245
rfemur 1.60354 25.1731 27.2914
rtibia 0.728837
rfoot -11.4308 -25.0221
rtoes 3.33455
lfemur 10.5271 -40.8558 -17.7089
ltibia -4.89332
lfoot -15.6541 47.6275
ltoes 3.99769
